<?xml version="1.0" encoding="UTF-8" standalone="no"?>
<!DOCTYPE svg PUBLIC "-//W3C//DTD SVG 1.1//EN"
 "http://www.w3.org/Graphics/SVG/1.1/DTD/svg11.dtd">
<!-- Generated by graphviz version 2.43.0 (0)
 -->
<!-- Title: G Pages: 1 -->
<svg width="180pt" height="392pt"
 viewBox="0.00 0.00 180.00 392.00" xmlns="http://www.w3.org/2000/svg" xmlns:xlink="http://www.w3.org/1999/xlink">
<g id="graph0" class="graph" transform="scale(1 1) rotate(0) translate(4 388)">
<title>G</title>
<polygon fill="white" stroke="transparent" points="-4,4 -4,-388 176,-388 176,4 -4,4"/>
<!-- 0 -->
<g id="node1" class="node">
<title>0</title>
<ellipse fill="none" stroke="black" cx="85" cy="-366" rx="27" ry="18"/>
<text text-anchor="middle" x="85" y="-362.3" font-family="Times,serif" font-size="14.00">0</text>
</g>
<!-- 1 -->
<g id="node2" class="node">
<title>1</title>
<ellipse fill="none" stroke="black" cx="27" cy="-192" rx="27" ry="18"/>
<text text-anchor="middle" x="27" y="-188.3" font-family="Times,serif" font-size="14.00">1</text>
</g>
<!-- 0&#45;&gt;1 -->
<g id="edge8" class="edge">
<title>0&#45;&gt;1</title>
<path fill="none" stroke="black" d="M71.91,-350.25C61.14,-337.21 46.48,-317.18 39,-297 29.76,-272.07 27.16,-241.67 26.63,-220.2"/>
<polygon fill="black" stroke="black" points="30.13,-220.1 26.52,-210.14 23.13,-220.18 30.13,-220.1"/>
<text text-anchor="middle" x="44" y="-275.3" font-family="Times,serif" font-size="14.00">7</text>
</g>
<!-- 2 -->
<g id="node3" class="node">
<title>2</title>
<ellipse fill="none" stroke="black" cx="145" cy="-192" rx="27" ry="18"/>
<text text-anchor="middle" x="145" y="-188.3" font-family="Times,serif" font-size="14.00">2</text>
</g>
<!-- 0&#45;&gt;2 -->
<g id="edge10" class="edge">
<title>0&#45;&gt;2</title>
<path fill="none" stroke="black" d="M96.25,-349.39C100.24,-343.48 104.59,-336.58 108,-330 126.4,-294.51 136.34,-248.97 141.15,-220.37"/>
<polygon fill="black" stroke="black" points="144.64,-220.73 142.75,-210.3 137.73,-219.63 144.64,-220.73"/>
<text text-anchor="middle" x="137" y="-275.3" font-family="Times,serif" font-size="14.00">8</text>
</g>
<!-- 3 -->
<g id="node4" class="node">
<title>3</title>
<ellipse fill="none" stroke="black" cx="85" cy="-279" rx="27" ry="18"/>
<text text-anchor="middle" x="85" y="-275.3" font-family="Times,serif" font-size="14.00">3</text>
</g>
<!-- 0&#45;&gt;3 -->
<g id="edge9" class="edge">
<title>0&#45;&gt;3</title>
<path fill="none" stroke="black" d="M85,-347.8C85,-336.16 85,-320.55 85,-307.24"/>
<polygon fill="black" stroke="black" points="88.5,-307.18 85,-297.18 81.5,-307.18 88.5,-307.18"/>
<text text-anchor="middle" x="94.5" y="-318.8" font-family="Times,serif" font-size="14.00">10</text>
</g>
<!-- 4 -->
<g id="node5" class="node">
<title>4</title>
<ellipse fill="none" stroke="black" cx="91" cy="-105" rx="27" ry="18"/>
<text text-anchor="middle" x="91" y="-101.3" font-family="Times,serif" font-size="14.00">4</text>
</g>
<!-- 1&#45;&gt;4 -->
<g id="edge3" class="edge">
<title>1&#45;&gt;4</title>
<path fill="none" stroke="black" d="M38.74,-175.41C48.39,-162.59 62.22,-144.22 73.23,-129.6"/>
<polygon fill="black" stroke="black" points="76.12,-131.59 79.34,-121.49 70.52,-127.37 76.12,-131.59"/>
<text text-anchor="middle" x="67" y="-144.8" font-family="Times,serif" font-size="14.00">1</text>
</g>
<!-- 5 -->
<g id="node6" class="node">
<title>5</title>
<ellipse fill="none" stroke="black" cx="43" cy="-18" rx="27" ry="18"/>
<text text-anchor="middle" x="43" y="-14.3" font-family="Times,serif" font-size="14.00">5</text>
</g>
<!-- 1&#45;&gt;5 -->
<g id="edge2" class="edge">
<title>1&#45;&gt;5</title>
<path fill="none" stroke="black" d="M28.41,-173.69C30.11,-153.05 33.11,-117.49 36,-87 37.27,-73.57 38.8,-58.65 40.1,-46.22"/>
<polygon fill="black" stroke="black" points="43.6,-46.35 41.17,-36.04 36.64,-45.62 43.6,-46.35"/>
<text text-anchor="middle" x="45.5" y="-101.3" font-family="Times,serif" font-size="14.00">21</text>
</g>
<!-- 2&#45;&gt;4 -->
<g id="edge7" class="edge">
<title>2&#45;&gt;4</title>
<path fill="none" stroke="black" d="M134.84,-175.01C126.92,-162.55 115.78,-145.01 106.72,-130.74"/>
<polygon fill="black" stroke="black" points="109.43,-128.48 101.11,-121.92 103.52,-132.23 109.43,-128.48"/>
<text text-anchor="middle" x="130.5" y="-144.8" font-family="Times,serif" font-size="14.00">12</text>
</g>
<!-- 3&#45;&gt;1 -->
<g id="edge4" class="edge">
<title>3&#45;&gt;1</title>
<path fill="none" stroke="black" d="M72.28,-263.01C67.32,-256.94 61.71,-249.77 57,-243 51.46,-235.03 45.86,-226.01 41.02,-217.85"/>
<polygon fill="black" stroke="black" points="43.98,-215.99 35.93,-209.11 37.93,-219.51 43.98,-215.99"/>
<text text-anchor="middle" x="66.5" y="-231.8" font-family="Times,serif" font-size="14.00">11</text>
</g>
<!-- 3&#45;&gt;2 -->
<g id="edge5" class="edge">
<title>3&#45;&gt;2</title>
<path fill="none" stroke="black" d="M96,-262.41C104.97,-249.71 117.78,-231.56 128.05,-217.01"/>
<polygon fill="black" stroke="black" points="131.16,-218.68 134.06,-208.49 125.44,-214.64 131.16,-218.68"/>
<text text-anchor="middle" x="123" y="-231.8" font-family="Times,serif" font-size="14.00">2</text>
</g>
<!-- 3&#45;&gt;4 -->
<g id="edge6" class="edge">
<title>3&#45;&gt;4</title>
<path fill="none" stroke="black" d="M85.6,-260.88C86.64,-231 88.8,-169.11 90.05,-133.27"/>
<polygon fill="black" stroke="black" points="93.55,-133.17 90.41,-123.05 86.56,-132.92 93.55,-133.17"/>
<text text-anchor="middle" x="93" y="-188.3" font-family="Times,serif" font-size="14.00">5</text>
</g>
<!-- 4&#45;&gt;5 -->
<g id="edge1" class="edge">
<title>4&#45;&gt;5</title>
<path fill="none" stroke="black" d="M81.97,-88.01C74.98,-75.63 65.16,-58.23 57.12,-44.01"/>
<polygon fill="black" stroke="black" points="60.12,-42.19 52.15,-35.21 54.02,-45.63 60.12,-42.19"/>
<text text-anchor="middle" x="78.5" y="-57.8" font-family="Times,serif" font-size="14.00">14</text>
</g>
</g>
</svg>
